<svg width="75" height="74" viewBox="0 0 75 74" fill="none" xmlns="http://www.w3.org/2000/svg">
<path d="M37.59 60.6499C37.51 60.6499 37.43 60.6301 37.34 60.5801C36.85 60.3201 36.36 60.0601 35.87 59.8101C34.81 59.2701 33.71 58.7001 32.7 58.0601C30.96 56.9501 28.96 55.6298 27.2 54.0298C25.13 52.1498 23.53 50.1502 22.3 47.9102C21.35 46.1902 20.64 44.2401 20 41.6001C19.73 40.5001 19.75 39.3802 19.77 38.2002C19.78 37.6502 19.79 37.08 19.77 36.52C19.73 35.6 19.74 34.66 19.75 33.75C19.75 33.33 19.76 32.92 19.76 32.5V32.1201H19.74C19.71 31.3601 19.68 29.4199 19.65 27.6699C19.63 26.4299 19.61 25.18 19.59 24.25C19.59 24.09 19.61 24.02 19.62 24H19.63C19.65 24 19.68 24 19.74 24H19.97H20.05C23.21 23.9 26.53 23.2001 30.2 21.8501C32.31 21.0701 34.35 20.2498 35.97 18.7598C36.59 18.1898 37.04 17.9502 37.48 17.9502C37.89 17.9502 38.36 18.1699 38.95 18.6499C41.11 20.4099 43.79 21.2898 46.15 22.0698C49.03 23.0198 52.16 23.5502 54.67 23.9702C54.9 24.0102 54.94 24.0398 54.95 24.0498C54.95 24.0498 54.97 24.0898 54.97 24.2798C54.91 27.4798 54.9899 30.7299 55.0699 33.8799C55.1199 35.7699 55.1701 37.7199 55.1801 39.6499C55.2101 42.5599 54.39 45.3502 52.68 48.1802C50.79 51.3202 48.1 54.0999 44.46 56.6899C42.88 57.8099 41.16 58.7602 39.49 59.6802C38.96 59.9702 38.42 60.2698 37.89 60.5698C37.77 60.6198 37.68 60.6499 37.59 60.6499ZM37.4 20.0801C37.08 20.0801 36.83 20.28 36.63 20.46C35.08 21.85 33.16 22.9199 30.42 23.9199C28.2 24.7299 25.67 25.2402 22.68 25.4502C21.58 25.5302 21.45 26.1701 21.46 26.8501C21.48 27.6201 21.49 28.3902 21.49 29.1602C21.5 30.1302 21.5 31.1399 21.54 32.1299C21.58 33.1899 21.57 34.2798 21.55 35.3398C21.51 38.1598 21.47 41.0802 22.5 43.9102C23.33 46.2002 24.23 47.9201 25.32 49.3301C26.88 51.3501 28.92 53.1798 31.74 55.0698C32.64 55.6698 33.59 56.2 34.51 56.71C35.22 57.1 35.95 57.5099 36.64 57.9399C36.92 58.1099 37.23 58.2002 37.54 58.2002C37.82 58.2002 38.09 58.13 38.33 57.98C38.94 57.61 39.55 57.2599 40.16 56.8999C41.72 55.9999 43.34 55.0599 44.83 53.9199C48.2 51.3399 50.44 48.6898 51.87 45.5898C52.53 44.1598 53.27 42.5502 53.22 40.6802C53.18 39.4302 53.17 37.4498 53.16 36.0098C53.15 34.9298 53.15 34.35 53.1 34.04L53.13 34.0698C53.13 33.3898 53.13 32.7 53.13 32.02C53.13 30.27 53.12 28.4599 53.15 26.6899C53.17 25.5699 52.47 25.3598 51.86 25.2998C49.84 25.0998 47.67 24.6401 45.24 23.8901C42.51 23.0501 40.12 21.8598 38.11 20.3398C37.94 20.2398 37.69 20.0801 37.4 20.0801Z" fill="white"/>
<path d="M37.51 29.1001L40.03 34.2002L45.66 35.02L41.58 38.9902L42.54 44.5898L37.51 41.9502L32.47 44.5898L33.43 38.9902L29.36 35.02L34.99 34.2002L37.51 29.1001Z" fill="white"/>
<path d="M37.37 72.77C57.1252 72.77 73.14 56.7552 73.14 37C73.14 17.2448 57.1252 1.22998 37.37 1.22998C17.6148 1.22998 1.59998 17.2448 1.59998 37C1.59998 56.7552 17.6148 72.77 37.37 72.77Z" stroke="white" stroke-width="1.9843" stroke-miterlimit="10"/>
</svg>
