<svg width="74" height="75" viewBox="0 0 74 75" fill="none" xmlns="http://www.w3.org/2000/svg">
<path d="M65.14 42.58C64.89 43.33 64.67 44.0998 64.11 44.7098C63.99 44.8398 64.02 45.0899 63.98 45.2899C63.51 47.1499 62.23 48.3401 60.63 49.2201C58.61 50.3401 56.41 50.8898 54.12 50.9198C49.41 50.9798 44.7 50.9698 39.99 50.9598C33.74 50.9498 27.49 51.07 21.24 50.91C17.51 50.81 13.92 50.0198 10.62 48.2098C9.97 47.8498 9.29003 47.4997 8.84003 46.8597C8.84003 46.6397 8.84003 46.4201 8.84003 46.2001C9.11003 46.0901 9.07998 45.8 9.16998 45.6C9.64998 44.49 10.11 43.3799 10.58 42.2699C10.69 42.0099 10.7 41.7801 10.62 41.4901C10.28 40.2201 10.48 38.9501 10.78 37.7001C11.48 34.7701 12.6 31.9997 13.9 29.2997C15.01 26.9997 16.87 25.6997 19.46 25.5297C20.16 25.4797 20.7 25.7699 21.15 26.2699C21.61 26.7799 21.93 27.3698 22.26 27.9598C22.68 28.7098 23.09 29.47 23.6 30.16C24.64 31.57 25.91 31.9901 27.6 31.4901C28.29 31.2901 28.92 30.97 29.55 30.64C29.81 30.5 29.95 30.39 29.72 30.08C28.68 28.65 28.75 27.1598 29.56 25.6498C30.37 24.1398 31.4 23.7098 33.06 24.1698C34.57 24.5898 35.81 25.5097 37.09 26.3597C38.51 27.2997 39.95 28.1998 41.38 29.1298C41.61 29.2798 41.77 29.31 41.99 29.08C42.32 28.73 42.74 28.6598 43.13 28.9598C43.48 29.2298 43.62 29.6099 43.34 30.0199C43.23 30.1899 43.28 30.28 43.43 30.37C43.7 30.52 43.97 30.6797 44.24 30.8397C44.51 30.9997 44.59 30.74 44.72 30.62C45.26 30.16 45.91 30.27 46.15 30.89C46.19 31 46.2 31.1396 46.21 31.2596C46.23 31.4796 45.86 31.6697 46.06 31.8397C46.35 32.0797 46.72 32.2298 47.06 32.3998C47.22 32.4798 47.29 32.3399 47.37 32.2499C47.7 31.8899 48.1 31.7101 48.54 31.9901C48.97 32.2601 49.09 32.65 48.82 33.12C48.79 33.16 48.76 33.2199 48.77 33.2699C48.84 33.5499 49.97 33.9201 50.17 33.7201C50.49 33.4101 50.86 33.2696 51.26 33.5096C51.64 33.7396 51.82 34.0899 51.63 34.5399C51.53 34.7899 51.73 34.8198 51.87 34.8798C52.77 35.2898 53.67 35.69 54.58 36.08C54.96 36.24 55.37 36.1901 55.77 36.2001C57.69 36.2801 59.59 36.4801 61.46 36.9701C63.47 37.5001 64.68 38.7399 65.03 40.8099C65.04 40.8499 65.09 40.89 65.13 40.93C65.14 41.48 65.14 42.03 65.14 42.58ZM62.09 45.62C61.99 45.61 61.93 45.59 61.89 45.6C59.51 46.26 57.08 46.6698 54.63 46.9398C53.93 47.0198 53.49 46.8099 53.39 46.2699C53.3 45.7799 53.6299 45.3797 54.3199 45.2997C57.0999 44.9797 59.84 44.4998 62.52 43.6898C62.84 43.5898 63.07 43.43 63.2 43.12C63.66 42.05 63.5301 41.0201 63.0601 39.9901C62.9401 39.7401 62.79 39.7097 62.54 39.8197C62.01 40.0497 61.46 40.2601 60.91 40.4501C58.68 41.2501 56.51 42.2499 54.12 42.5199C52.55 42.6999 51.11 42.4498 50.21 40.9398C50.08 40.7298 49.96 40.6699 49.72 40.7499C47.52 41.5299 45.72 42.8498 44.3 44.7098C44.12 44.9398 44.14 45.0697 44.45 45.0897C44.94 45.1297 45.43 45.1698 45.93 45.2098C47.55 45.3398 49.18 45.4601 50.81 45.4501C51.34 45.4501 51.73 45.8297 51.74 46.2797C51.75 46.7397 51.35 47.0997 50.77 47.1097C48.84 47.1397 46.93 46.9797 45.01 46.7997C42.73 46.5897 40.46 46.3397 38.19 46.0897C35.87 45.8297 33.55 45.5496 31.22 45.2596C29.1 44.9996 26.98 44.7198 24.86 44.4398C22.83 44.1698 20.81 43.91 18.78 43.64C16.72 43.36 14.66 43.0799 12.6 42.7699C12.28 42.7199 12.14 42.7997 12.03 43.0897C11.75 43.8097 11.45 44.5101 11.16 45.2201C10.69 46.3801 10.69 46.3998 11.81 46.9598C14.95 48.5398 18.32 49.2499 21.81 49.2699C32.46 49.3199 43.1 49.2997 53.75 49.2797C55.86 49.2797 57.88 48.7999 59.76 47.8099C60.71 47.2999 61.55 46.65 62.09 45.62ZM45.87 35.6498C45.67 35.6098 45.41 35.4998 45.26 35.2098C45.1 34.8998 45.14 34.6097 45.34 34.3397C45.46 34.1797 45.61 34.0398 45.75 33.8998C45.83 33.8198 45.93 33.72 45.78 33.64C45.45 33.44 45.13 33.1897 44.77 33.0897C44.49 33.0097 44.36 33.3897 44.15 33.5497C43.98 33.6797 43.84 33.8599 43.66 33.9799C43.33 34.1999 42.99 34.18 42.71 33.91C42.43 33.64 42.28 33.3 42.52 32.93C42.65 32.7301 42.81 32.56 42.98 32.39C43.15 32.22 43.15 32.1301 42.92 31.9901C42.02 31.4201 42.03 31.4098 41.28 32.1498C41.25 32.1798 41.23 32.1999 41.2 32.2299C40.75 32.6599 40.25 32.7 39.89 32.33C39.54 31.96 39.58 31.5397 40.01 31.0697C40.5 30.5297 40.48 30.44 39.82 30.14C39.41 29.95 39.31 30.3399 39.15 30.5199C36.44 33.5199 33.74 36.5399 31.02 39.5399C30.72 39.8699 30.75 39.9598 31.1 40.2098C32.4 41.1298 33.58 42.1599 34.09 43.7499C34.17 43.9999 34.36 43.9997 34.57 44.0297C37.02 44.3097 39.47 44.58 41.92 44.87C42.15 44.9 42.29 44.87 42.4 44.64C43 43.44 43.91 42.48 44.93 41.64C46.77 40.13 48.77 38.9897 51.23 38.8397C52.08 38.7897 52.93 38.5899 53.73 38.2699C53.92 38.1899 54.21 38.13 54.21 37.89C54.21 37.66 53.93 37.6297 53.75 37.5497C53 37.2097 52.24 36.8899 51.5 36.5399C50.34 35.9999 50.35 35.99 49.43 36.85C49.36 36.91 49.3 36.9797 49.22 37.0297C48.86 37.2897 48.49 37.2901 48.17 36.9901C47.87 36.7001 47.76 36.3301 48.03 35.9501C48.17 35.7601 48.34 35.59 48.5 35.41C48.58 35.32 48.74 35.2197 48.55 35.1097C48.22 34.9197 47.89 34.68 47.53 34.6C47.27 34.54 47.11 34.91 46.91 35.08C46.64 35.33 46.41 35.6598 45.87 35.6498ZM32.26 43.7098C31.71 42.6798 30.9 42.0799 30.08 41.4999C28.44 40.3499 26.62 39.5301 24.79 38.7401C24.59 38.6501 24.38 38.58 24.24 38.39C24 38.05 23.99 37.7 24.24 37.37C24.53 37 24.92 36.99 25.33 37.16C26.53 37.66 27.72 38.1797 28.85 38.7997C29.14 38.9597 29.31 38.9501 29.54 38.68C30.28 37.8201 31.05 36.99 31.81 36.14C33.82 33.91 35.82 31.6698 37.83 29.4398C38.08 29.1698 38.16 28.9999 37.76 28.7899C37.34 28.5699 36.96 28.2696 36.56 28.0096C35.91 27.5796 35.92 27.5898 35.35 28.1498C33.55 29.9198 31.62 31.51 29.32 32.6C28.09 33.18 26.8 33.5399 25.44 33.2899C24.92 33.1899 24.54 33.2999 24.11 33.5399C22.78 34.3199 21.34 34.5598 19.83 34.2098C18.07 33.7898 16.39 33.14 14.68 32.58C14.01 32.36 14.14 32.9398 13.99 33.1898C13.77 33.5698 14.16 33.55 14.35 33.6C15.97 34.01 17.58 34.4801 19.19 34.9701C20.11 35.2601 21.03 35.55 21.94 35.87C22.47 36.05 22.69 36.4798 22.54 36.9398C22.4 37.3798 21.95 37.5998 21.42 37.4598C21.3 37.4298 21.18 37.37 21.06 37.33C18.61 36.5 16.14 35.76 13.62 35.14C13.44 35.1 13.28 34.9696 13.19 35.2596C12.65 36.9596 12.06 38.6499 12.09 40.4799C12.1 40.8799 12.26 41.0197 12.63 41.0697C13.7 41.1997 14.76 41.3696 15.83 41.5096C18.09 41.8196 20.35 42.1301 22.61 42.43C24.47 42.68 26.34 42.9198 28.2 43.1698C29.54 43.3698 30.84 43.5298 32.26 43.7098ZM21.15 32.6898C21.71 32.7298 22.29 32.58 22.85 32.35C23.07 32.26 23.19 32.2001 22.94 31.9501C22.39 31.4101 21.95 30.7797 21.56 30.1097C21.09 29.3097 20.62 28.4998 20.15 27.6898C19.9 27.2498 19.56 27.1299 19.05 27.2299C17.03 27.5999 15.81 28.8601 15.07 30.7001C14.95 31.0001 15.16 30.9899 15.33 31.0399C16.32 31.3699 17.29 31.7096 18.29 32.0096C19.21 32.2896 20.1 32.7298 21.15 32.6898ZM51.85 40.4501C52.78 41.0801 53.67 40.9299 54.54 40.7699C56.45 40.4099 58.23 39.6499 60.03 38.9799C60.3 38.8799 60.62 38.84 60.88 38.58C59.32 38.11 57.76 38.0398 56.21 37.8798C56.03 37.8598 55.93 37.9197 55.91 38.1097C55.81 38.9697 55.21 39.3801 54.51 39.7201C53.71 40.1101 52.83 40.2401 51.85 40.4501ZM30.6 27.8099C30.64 28.3399 30.84 28.8001 31.16 29.2201C31.31 29.4301 31.45 29.3896 31.61 29.2596C32.56 28.5196 33.47 27.7298 34.33 26.8798C34.54 26.6698 34.44 26.5899 34.25 26.4799C33.6 26.0999 32.91 25.8098 32.17 25.6698C31.87 25.6098 31.56 25.65 31.37 25.91C30.96 26.48 30.68 27.1099 30.6 27.8099Z" fill="white"/>
<path d="M36.58 29.9704C36.58 30.4404 36.22 30.8103 35.76 30.8103C35.33 30.8103 34.92 30.3902 34.93 29.9602C34.94 29.5102 35.32 29.1601 35.8 29.1701C36.25 29.1701 36.57 29.5004 36.58 29.9704Z" fill="white"/>
<path d="M36.99 73.27C56.7452 73.27 72.76 57.2552 72.76 37.5C72.76 17.7448 56.7452 1.72998 36.99 1.72998C17.2348 1.72998 1.21997 17.7448 1.21997 37.5C1.21997 57.2552 17.2348 73.27 36.99 73.27Z" stroke="white" stroke-width="1.9843" stroke-miterlimit="10"/>
</svg>
