<svg width="41" height="39" viewBox="0 0 41 39" fill="none" xmlns="http://www.w3.org/2000/svg">
<path d="M19.55 38.2796C18.76 38.3596 17.92 38.3197 17.11 38.1897C15.85 37.9797 14.61 37.7098 13.39 37.2898C12.3 36.9098 11.28 36.3897 10.24 35.8997C9.47998 35.5397 8.81001 35.0298 8.14001 34.5198C7.52001 34.0498 6.89998 33.5595 6.32998 33.0095C5.60998 32.3295 5.01 31.5498 4.38 30.7898C3.84 30.1298 3.38 29.4097 2.98 28.6497C2.56 27.8697 2.14 27.0895 1.82 26.2595C1.38 25.1395 1.04998 23.9896 0.82998 22.8196C0.50998 21.0796 0.479989 19.3196 0.619989 17.5496C0.709989 16.4096 0.919985 15.3097 1.20999 14.2097C1.64999 12.5397 2.33 10.9698 3.22 9.49978C4.49999 7.38978 6.09999 5.5496 8.08999 4.0696C9.06999 3.3396 10.12 2.6997 11.24 2.1697C12.51 1.5697 13.82 1.0998 15.18 0.769797C17.12 0.289797 19.09 0.209836 21.08 0.309836C22.62 0.389836 24.13 0.719992 25.58 1.21999C27.6 1.91999 29.5 2.87999 31.19 4.21999C31.46 4.42999 31.37 4.49991 31.16 4.63991C30.24 5.23991 29.36 5.88989 28.54 6.61989C28.36 6.77989 28.22 6.83995 28.01 6.67995C27.2 6.05995 26.27 5.64001 25.34 5.24001C24.1 4.71001 22.81 4.37954 21.48 4.25954C20.49 4.16954 19.48 4.05974 18.47 4.20974C17.76 4.31974 17.04 4.30999 16.33 4.46999C15.1 4.74999 13.91 5.13999 12.8 5.71999C11.81 6.23999 10.84 6.81984 9.98998 7.55984C8.91998 8.50984 7.90998 9.50997 7.07998 10.7C6.03998 12.2 5.29999 13.8199 4.86999 15.5799C4.44999 17.2999 4.26999 19.0496 4.47 20.8196C4.62 22.1096 4.84 23.3799 5.32 24.5799C5.96 26.1799 6.78001 27.6896 7.92001 29.0296C8.92001 30.1996 10.04 31.2196 11.3 32.0696C12.22 32.6896 13.22 33.1696 14.27 33.5496C15.28 33.9096 16.3 34.2499 17.38 34.3699C18.69 34.5199 19.99 34.6799 21.32 34.4099C21.88 34.2899 22.47 34.2997 23.04 34.1497C24.86 33.6897 26.55 32.9599 28.12 31.9099C29.49 30.9999 30.67 29.8796 31.67 28.5896C32.42 27.6196 33.05 26.5699 33.53 25.4099C33.93 24.4299 34.3 23.4497 34.51 22.4197C34.61 21.9497 35.03 20.4999 34.75 18.1199C34.58 16.7099 34.36 15.3496 33.85 14.0296C33.71 13.6596 33.74 13.3896 34 13.1096C34.76 12.2996 35.51 11.4799 36.25 10.6599C36.4 10.4999 36.5 10.51 36.58 10.7C37.17 12.02 37.69 13.3595 38.05 14.7595C38.57 16.7595 38.66 18.8099 38.54 20.8499C38.45 22.4899 38.05 24.0999 37.49 25.6599C36.78 27.6399 35.79 29.4496 34.47 31.1096C33.14 32.7796 31.58 34.1899 29.79 35.3499C28.93 35.9099 28.01 36.3496 27.07 36.7796C25.5 37.4996 23.83 37.8797 22.15 38.1897C21.32 38.3197 20.45 38.3396 19.55 38.2796Z" fill="#0DB14B"/>
<path d="M19.1001 30.2598C18.0801 30.3798 17.4701 29.7802 17.0401 28.9902C15.9801 27.0702 14.9501 25.1302 13.9201 23.2002C13.0201 21.5102 12.13 19.7999 11.22 18.1099C10.68 17.1099 10.09 16.1301 9.63005 15.1001C9.28005 14.3101 9.45006 13.6699 10.1401 13.1499C10.4601 12.9099 10.79 12.66 11.16 12.48C11.9 12.11 12.4901 12.17 13.0701 12.75C14.1401 13.84 15.19 14.95 16.27 16.02C17.13 16.87 17.95 17.7399 18.78 18.6099C19.04 18.8799 19.25 18.8598 19.49 18.5298C19.98 17.8298 20.52 17.18 21.08 16.52C22.22 15.17 23.45 13.9001 24.69 12.6401C25.8 11.5201 26.95 10.4502 28.16 9.43018C29.28 8.49018 30.44 7.59021 31.62 6.72021C32.49 6.08021 33.4001 5.48988 34.2901 4.87988C34.9901 4.39988 35.75 4.00008 36.49 3.58008C37.18 3.20008 37.8801 2.83998 38.5701 2.47998C38.8801 2.30998 39.2101 2.16992 39.5701 2.16992C39.9801 2.16992 40.2901 2.38002 40.4501 2.77002C40.6401 3.24002 40.55 3.75002 40.27 4.02002C38.87 5.37002 37.38 6.62979 36.03 8.02979C35.02 9.07979 34.0101 10.1202 33.0401 11.2202C32.1101 12.2702 31.21 13.3202 30.36 14.4302C29.26 15.8702 28.1801 17.3298 27.1701 18.8398C26.1401 20.3698 25.1401 21.92 24.2001 23.5C23.4201 24.81 22.72 26.18 21.94 27.5C21.57 28.13 21.31 28.8099 20.87 29.3999C20.41 30.0199 19.8701 30.3398 19.1001 30.2598Z" fill="#0DB14B"/>
</svg>
