<svg width="75" height="75" viewBox="0 0 75 75" fill="none" xmlns="http://www.w3.org/2000/svg">
<path d="M37.37 73.04C57.1252 73.04 73.14 57.0252 73.14 37.27C73.14 17.5148 57.1252 1.5 37.37 1.5C17.6148 1.5 1.59998 17.5148 1.59998 37.27C1.59998 57.0252 17.6148 73.04 37.37 73.04Z" stroke="white" stroke-width="1.9843" stroke-miterlimit="10"/>
<path d="M51.28 55.3998C49.57 55.3698 47.94 55.28 46.33 55.08C44.81 54.89 43.32 54.5401 41.84 54.1601C40.38 53.7801 38.96 53.2899 37.55 52.7499C36.38 52.2999 35.24 51.8097 34.1 51.2797C32.88 50.7097 31.7 50.0699 30.5 49.4799C28.86 48.6799 27.27 47.7697 25.71 46.8197C24.25 45.9297 22.83 44.9699 21.44 43.9799C19.21 42.4099 17.06 40.7301 15.28 38.6401C14.56 37.8001 13.94 36.8801 13.35 35.9301C12.74 34.9501 12.21 33.9301 11.73 32.8901C11.48 32.3401 11.22 31.7898 11.15 31.1698C11.11 30.7498 11.26 30.4199 11.57 30.2099C12.57 29.5399 13.61 28.9102 14.62 28.2402C15.3 27.7902 15.93 27.3397 16.33 26.5297C16.77 25.6197 17.58 24.92 18.41 24.31C19.14 23.77 19.83 23.1901 20.56 22.6601C21.12 22.2501 21.7 21.8797 22.28 21.5097C23.37 20.7997 24.46 20.0601 25.58 19.3901C26.86 18.6201 28.25 18.33 29.76 18.54C30.7 18.67 31.5 19.0697 32.3 19.5297C32.95 19.9097 33.18 20.5302 33.21 21.2402C33.26 22.3802 33.03 23.4898 32.84 24.6098C32.69 25.4998 32.43 26.3697 32.55 27.2997C32.7 28.4797 33.54 29.1398 34.6 29.1698C34.88 29.1798 35.17 29.1898 35.45 29.1698C35.75 29.1498 35.88 29.0099 35.73 28.6899C35.31 27.8099 35.31 26.8697 35.68 26.0097C36.04 25.1497 36.69 24.4701 37.49 23.9501C38.63 23.2001 39.79 23.6197 40.65 24.2597C41.58 24.9497 42.22 25.8497 42.85 26.7997C43.57 27.8797 44.16 29.0298 44.87 30.1098C45.28 30.7298 45.6 31.41 45.94 32.08C46.07 32.34 46.21 32.3599 46.47 32.2699C46.94 32.1099 47.32 32.1098 47.55 32.6698C47.72 33.0798 47.57 33.4 47.29 33.62C47.02 33.82 47.05 33.9498 47.23 34.1498C47.24 34.1598 47.24 34.1799 47.26 34.1899C47.45 34.3399 47.37 34.6899 47.64 34.7499C47.88 34.8099 48.02 34.5401 48.23 34.4701C48.65 34.3201 48.89 34.58 49.07 34.87C49.29 35.2 49.16 35.53 48.91 35.81C48.81 35.92 48.56 35.9701 48.66 36.1601C48.8 36.4201 48.89 36.7298 49.15 36.8998C49.3 36.9998 49.4 36.7799 49.51 36.6899C49.77 36.4799 50.07 36.5 50.31 36.62C50.58 36.75 50.74 37.0098 50.7 37.3598C50.68 37.5098 50.61 37.5999 50.5 37.6899C50.31 37.8599 50.14 38.1197 50.37 38.2997C50.57 38.4497 50.8 38.7802 51.18 38.4902C51.65 38.1302 52.03 38.2299 52.29 38.6899C52.44 38.9599 52.31 39.1798 52.18 39.3998C52.06 39.6098 52.07 39.6998 52.31 39.8398C52.85 40.1798 53.44 40.4201 54.01 40.7001C54.23 40.8101 54.44 40.7501 54.66 40.7201C56.55 40.4501 58.44 40.1998 60.36 40.4198C61.66 40.5698 62.6101 41.2601 63.1801 42.3901C63.5501 43.1301 63.63 43.97 63.57 44.85C63.4899 45.86 63.22 46.8398 63.24 47.8598C63.27 48.8998 62.9 49.8401 62.36 50.7001C61.49 52.1101 60.2 53.0498 58.78 53.8598C57.61 54.5198 56.36 54.9501 55.07 55.1801C53.81 55.3501 52.5 55.4698 51.28 55.3998ZM51.54 53.7201C52.54 53.7401 53.6701 53.6198 54.8101 53.4198C55.7301 53.2598 56.5901 52.9498 57.4301 52.6098C58.0401 52.3598 58.6301 51.9898 59.1801 51.5898C60.1101 50.9098 60.87 50.1 61.33 49.04C61.36 48.97 61.3901 48.8898 61.3101 48.8398C61.2801 48.8198 61.2 48.85 61.15 48.87C60.43 49.25 59.6799 49.5601 58.9399 49.8901C57.5299 50.5101 56.0401 50.8301 54.5601 51.2001C54.1201 51.3101 53.64 51.3197 53.18 51.2997C52.64 51.2897 52.48 51.1 52.45 50.6C52.42 50.18 52.65 49.89 53.09 49.79C54.19 49.54 55.31 49.3597 56.38 49.0297C58.09 48.5097 59.73 47.81 61.24 46.85C61.45 46.71 61.73 46.5697 61.79 46.2997C61.9 45.7297 62.06 45.15 62.03 44.58C61.99 43.99 61.88 43.38 61.47 42.87C61.31 42.68 61.2401 42.6797 61.0501 42.8197C59.7201 43.7897 58.3799 44.7397 56.9399 45.5497C55.6799 46.2697 54.38 46.8302 52.92 46.9902C51.48 47.1602 50.27 46.8799 49.56 45.4599C49.5 45.3299 49.37 45.26 49.22 45.31C48.63 45.5 48.03 45.6699 47.49 45.9999C46.94 46.3299 46.38 46.6698 45.8 46.8598C44.92 47.1498 44.18 47.69 43.34 48.04C43.22 48.09 43.11 48.21 43.1 48.35C43.09 48.51 43.23 48.5898 43.36 48.6098C43.83 48.6998 44.24 48.9598 44.69 49.1098C45.26 49.2898 45.84 49.3699 46.42 49.4999C47.14 49.6599 47.84 49.8097 48.58 49.7997C49 49.7897 49.42 49.8301 49.83 49.8901C50.22 49.9501 50.59 50.0997 50.68 50.5497C50.76 50.9597 50.55 51.2399 50.04 51.4399C49.81 51.5299 49.58 51.54 49.34 51.54C48.66 51.53 48.01 51.3997 47.34 51.3197C46.32 51.1997 45.32 50.9501 44.34 50.6601C43.58 50.4301 42.83 50.14 42.1 49.83C40.95 49.35 39.83 48.8099 38.74 48.2099C37.98 47.7899 37.21 47.3701 36.47 46.9101C35.42 46.2601 34.37 45.5998 33.34 44.9198C32.59 44.4298 31.88 43.89 31.15 43.37C30.11 42.64 29.11 41.8497 28.13 41.0497C26.95 40.0797 25.8 39.0699 24.69 38.0199C23.29 36.6999 21.92 35.3401 20.61 33.9301C19.4 32.6301 18.27 31.2699 17.1 29.9399C16.46 29.2099 16.45 29.1899 15.63 29.6899C14.89 30.1399 14.17 30.6298 13.46 31.1298C13.21 31.2998 13.03 31.5198 13.16 31.8798C13.43 32.6198 13.79 33.3297 14.17 34.0097C14.86 35.2397 15.66 36.4197 16.57 37.5097C17.75 38.9297 19.1 40.1502 20.59 41.2402C21.29 41.7502 21.99 42.2502 22.7 42.7402C23.52 43.3102 24.34 43.8701 25.17 44.4301C25.99 44.9801 26.83 45.4799 27.67 45.9999C28.6 46.5799 29.56 47.0798 30.51 47.6098C31.55 48.1798 32.62 48.6799 33.67 49.2299C34.81 49.8299 35.99 50.3498 37.18 50.8398C38.7 51.4598 40.24 52.0301 41.84 52.4501C42.57 52.6401 43.3 52.9097 44.04 53.0097C45.07 53.1597 46.09 53.3699 47.13 53.4599C48.56 53.5599 49.97 53.7401 51.54 53.7201ZM34.01 42.5898C33.79 43.1798 34.18 43.49 34.7 43.81C35.66 44.4 36.62 44.98 37.57 45.58C38.64 46.26 39.74 46.8501 40.84 47.4701C41.07 47.6001 41.19 47.5898 41.4 47.3798C42.07 46.6998 42.88 46.21 43.76 45.87C44.67 45.53 45.66 45.43 46.46 44.79C46.63 44.66 46.85 44.5301 47.06 44.4301C48.33 43.8401 49.66 43.5201 51.04 43.4101C51.85 43.3501 52.6 43.0699 53.34 42.7499C53.48 42.6899 53.58 42.5901 53.57 42.4101C53.56 42.2301 53.42 42.2601 53.32 42.2001C52.74 41.8501 52.1 41.6102 51.53 41.2402C50.62 40.6602 50.6 40.69 49.75 41.35C49.59 41.48 49.4 41.5701 49.22 41.6801C49.08 41.7601 48.95 41.7601 48.8 41.6601C48.37 41.4001 48.33 40.7701 48.74 40.4301C49.52 39.7701 49.51 39.7801 48.96 39.1801C48.76 38.9601 48.61 38.9701 48.4 39.1401C48.18 39.3201 47.96 39.4898 47.72 39.6298C47.49 39.7698 47.23 39.7801 46.99 39.6601C46.76 39.5401 46.75 39.3198 46.72 39.0898C46.64 38.4598 47.15 38.2599 47.52 37.9599C47.63 37.8699 47.77 37.8398 47.67 37.6698C47.55 37.4698 47.4 37.28 47.27 37.1C47.08 36.84 46.9 36.7699 46.62 37.0199C46.42 37.2099 46.15 37.3299 45.89 37.4399C45.65 37.5399 45.42 37.5297 45.23 37.2597C44.83 36.7097 45 36.1097 45.73 35.7997C46.06 35.6597 46.1 35.4801 46.01 35.2201C45.84 34.7101 45.43 34.5302 44.93 34.7402C44.81 34.7902 44.7 34.8699 44.58 34.9399C44.3 35.1099 43.99 35.1202 43.73 34.9902C43.47 34.8602 43.41 34.56 43.42 34.29C43.43 34.01 43.49 33.7598 43.79 33.5898C43.99 33.4798 44.18 33.3299 44.39 33.2099C44.6 33.0899 44.64 32.8799 44.47 32.7299C44.3 32.5699 44.23 32.1698 43.87 32.3598C43.22 32.6998 42.6 33.0899 41.96 33.4399C41.21 33.8599 40.47 34.2798 39.71 34.6698C38.84 35.1298 37.95 35.5699 37.07 35.9999C36.46 36.2999 35.85 36.58 35.23 36.85C34.5 37.17 33.76 37.4699 33.02 37.7699C32.74 37.8899 32.68 38.06 32.84 38.33C33 38.61 33.12 38.9099 33.25 39.2099C33.73 40.2799 33.98 41.3698 34.01 42.5898ZM32.28 42.12C32.33 41.86 32.3 41.6899 32.27 41.5199C31.99 39.9799 31.23 38.64 30.51 37.29C29.81 36 28.99 34.7697 28.23 33.5097C28 33.1297 28.16 32.6198 28.57 32.3398C28.9 32.1098 29.2 32.2202 29.44 32.4902C29.6 32.6702 29.74 32.86 29.86 33.06C30.47 34.07 31.08 35.0898 31.69 36.1098C31.8 36.2998 31.98 36.3497 32.19 36.2797C33.31 35.9097 34.42 35.4699 35.48 34.9599C36.57 34.4299 37.67 33.92 38.73 33.33C40.12 32.55 41.54 31.83 42.95 31.08C43.23 30.93 43.25 30.6601 43.09 30.4301C42.82 30.0401 42.61 29.6201 42.39 29.2001C42.13 28.7201 41.94 28.64 41.56 28.81C40.48 29.29 39.41 29.7598 38.29 30.1298C37.11 30.5198 35.93 30.81 34.67 30.81C33.6 30.81 32.66 30.5401 31.95 29.7001C31.54 29.2101 31.07 28.9301 30.38 28.9501C29.83 28.9701 29.32 28.6701 28.84 28.4101C28.14 28.0301 27.6 27.4597 27.17 26.7997C26.74 26.1397 26.3 25.4797 25.92 24.7797C25.47 23.9697 24.96 23.1998 24.46 22.4198C24.37 22.2798 24.21 22.1898 24.05 22.3598C23.89 22.5398 23.46 22.5601 23.63 22.9301C23.8 23.2801 24.02 23.6198 24.27 23.9198C24.76 24.5298 25.12 25.2198 25.56 25.8598C26.01 26.5198 26.4 27.2298 26.8 27.9198C27.19 28.5798 27.58 29.2298 27.94 29.8998C28.14 30.2698 27.95 30.8 27.59 31.04C27.31 31.23 26.85 31.1102 26.6 30.7402C26.19 30.1302 25.81 29.4998 25.42 28.8798C24.87 27.9698 24.35 27.0398 23.78 26.1498C23.29 25.3798 22.9 24.5497 22.37 23.7997C22.26 23.6497 22.17 23.5899 22.07 23.7299C21.95 23.8899 21.77 23.9099 21.63 24.0199C20.46 24.8799 19.21 25.6497 18.24 26.7797C17.7 27.3997 17.61 27.6102 18.11 28.2402C19.06 29.4302 19.98 30.6397 20.99 31.7797C22.15 33.0797 23.31 34.3898 24.58 35.5898C25.7 36.6598 26.83 37.7199 28.02 38.7299C28.62 39.2399 29.25 39.7399 29.85 40.2499C30.61 40.8999 31.44 41.47 32.28 42.12ZM29 20.1899C27.76 20.1899 26.82 20.6001 25.93 21.1401C25.8 21.2201 25.71 21.36 25.85 21.56C26.09 21.89 26.29 22.25 26.5 22.6C26.91 23.27 27.32 23.9498 27.74 24.6098C28.11 25.1898 28.44 25.81 28.96 26.29C29.43 26.72 29.94 27.0999 30.6 27.1899C30.85 27.2299 30.93 27.1398 30.94 26.8798C30.95 26.2898 30.9 25.68 31.03 25.1C31.29 24 31.35 22.8597 31.57 21.7597C31.65 21.3497 31.47 21 31.13 20.81C30.43 20.39 29.65 20.2199 29 20.1899ZM51.4 45.0497C51.82 45.3997 52.27 45.5299 52.78 45.4399C54.02 45.2099 55.16 44.7601 56.25 44.1401C57.22 43.6001 58.1401 42.9998 59.0501 42.3598C59.1501 42.2898 59.3501 42.2598 59.3001 42.0898C59.2401 41.9098 59.04 41.9902 58.91 41.9902C57.8 41.9502 56.71 42.1301 55.61 42.2201C55.13 42.2601 55 42.46 55.01 42.87C55.01 43.06 54.9201 43.2 54.8101 43.35C54.3501 43.95 53.73 44.2998 53.05 44.5898C52.51 44.7998 51.92 44.7497 51.4 45.0497ZM37.05 27.56C37.01 27.71 37.12 27.9601 37.19 28.2201C37.29 28.5801 37.48 28.7099 37.85 28.4999C38.05 28.3799 38.3 28.3399 38.51 28.2499C39.28 27.9399 40.07 27.67 40.8 27.29C41.03 27.17 41.08 27.0298 40.92 26.8398C40.61 26.4998 40.32 26.1298 39.97 25.8398C39.13 25.1298 38.89 25.0501 38.31 25.4101C38.16 25.5001 38.03 25.6297 37.91 25.7597C37.47 26.2297 37.07 26.74 37.05 27.56Z" fill="white"/>
<path d="M41.72 30.76C41.71 31.23 41.29 31.6804 40.86 31.6604C40.48 31.6404 40.2 31.2801 40.19 30.8201C40.19 30.2801 40.46 29.9702 40.94 29.9802C41.45 29.9902 41.73 30.28 41.72 30.76Z" fill="white"/>
<path d="M18.78 48.3701L21.34 54.6299L23.9 48.3701L21.88 49.54V45.6401H20.8V49.54L18.78 48.3701Z" fill="white"/>
<path d="M11.51 48.3701L14.07 54.6299L16.63 48.3701L14.61 49.54V45.6401H13.53V49.54L11.51 48.3701Z" fill="white"/>
<path d="M11.16 56.0698H63.39" stroke="white" stroke-width="1.9843" stroke-miterlimit="10"/>
</svg>
