<svg width="74" height="74" viewBox="0 0 74 74" fill="none" xmlns="http://www.w3.org/2000/svg">
<path d="M40.04 48.8904C33.84 48.8904 27.65 48.8604 21.45 48.9104C19.28 48.9304 17.59 47.9901 16.09 46.5901C15.7 46.2301 15.26 45.7003 15.86 45.1203C16.29 44.7103 16.73 44.8904 17.18 45.1804C17.94 45.6604 18.69 46.16 19.5 46.53C20.66 47.05 21.81 47.6604 23.18 46.9304C30.41 43.0404 38 42.5404 45.84 44.6404C49.45 45.6004 53.2 45.8801 56.75 47.1701C58.68 47.8701 60.35 46.7503 61.91 45.6203C62.54 45.1603 63.38 44.42 64.04 45.32C64.7 46.23 63.6599 46.8302 63.0699 47.2502C61.6199 48.2902 60.09 49.0002 58.14 48.9602C52.1 48.8202 46.07 48.9004 40.04 48.8904ZM28.72 46.6902C28.73 46.9002 28.74 47.11 28.75 47.32C34.75 47.32 40.75 47.32 46.75 47.32C40.76 45.24 34.76 44.4802 28.72 46.6902Z" fill="white"/>
<path d="M19.68 24.0296C19.78 27.1696 19.56 30.0899 19.27 33.0199C18.77 38.1999 21.58 40.8699 26.63 39.8099C33.91 38.2799 41.13 38.0199 48.39 39.8499C49.78 40.1999 51.31 40.0197 52.77 40.0897C53.34 40.1097 54.06 40.0696 54.13 40.7996C54.2 41.5796 53.62 41.9701 52.87 41.9701C51 41.9801 49.11 42.24 47.27 41.7C41.11 39.87 34.96 39.7601 28.73 41.4701C25.71 42.3001 22.71 42.5697 19.92 40.3197C17.88 38.6797 16.88 36.6601 17.09 34.2401C17.69 27.3201 18.29 20.4199 16.87 13.5199C16.72 12.8099 16.66 11.8896 17.65 11.7596C18.66 11.6296 18.67 12.5796 18.83 13.2796C19.68 16.8896 19.82 20.5496 19.68 24.0296Z" fill="white"/>
<path d="M57.84 42C57.71 41.99 57.22 41.9999 56.74 41.9199C56.19 41.8399 55.88 41.4602 55.88 40.9102C55.88 40.2702 56.35 40.1301 56.87 40.1001C57.52 40.0601 58.1699 40.07 58.8199 40.02C59.7199 39.95 60.0499 39.2698 60.1899 38.5298C60.3899 37.5298 59.5599 37.54 58.9499 37.44C51.9899 36.3 45.81 33.0101 39.87 29.6001C33.88 26.1701 31.07 20.1501 30.12 13.3501C30.01 12.5501 30.21 11.8103 31.17 11.7403C32.18 11.6703 31.97 12.5502 32.06 13.1402C33.09 19.6302 35.87 24.7098 41.02 28.0098C42.29 28.8298 47.2 31.1499 48.22 31.6299C50.46 32.6799 52.8399 33.65 55.0699 34.75C56.4599 35.44 57.97 35.0199 59.38 35.3799C60.85 35.7599 62.5299 35.7801 62.3199 38.0801C62.1299 40.1901 60.7399 41.8 58.6899 41.98C58.5299 42.01 58.37 42 57.84 42Z" fill="white"/>
<path d="M28.48 26.3501C28.54 27.2801 27.93 27.3902 27.23 27.4102C25.29 27.4602 22.55 24.9 22.5 23C22.49 22.48 22.56 22 23.08 21.77C23.68 21.51 24.01 21.9399 24.17 22.3999C24.8 24.1199 25.8 25.3598 27.78 25.5098C28.2 25.5498 28.46 25.8801 28.48 26.3501Z" fill="white"/>
<path d="M34.43 57.1099L31.88 50.8501L29.32 57.1099L31.34 55.9399V59.8398H32.42V55.9399L34.43 57.1099Z" fill="white"/>
<path d="M44.38 57.1099L41.83 50.8501L39.27 57.1099L41.28 55.9399V59.8398H42.37V55.9399L44.38 57.1099Z" fill="white"/>
<path d="M54.71 57.1099L52.16 50.8501L49.6 57.1099L51.61 55.9399V59.8398H52.7V55.9399L54.71 57.1099Z" fill="white"/>
<path d="M36.99 72.77C56.7452 72.77 72.76 56.7552 72.76 37C72.76 17.2448 56.7452 1.22998 36.99 1.22998C17.2348 1.22998 1.21997 17.2448 1.21997 37C1.21997 56.7552 17.2348 72.77 36.99 72.77Z" stroke="white" stroke-width="1.9843" stroke-miterlimit="10"/>
</svg>
