<svg width="1290" height="385" viewBox="0 0 1290 385" fill="none" xmlns="http://www.w3.org/2000/svg">
<path d="M163.28 383.42H113.91L85.24 238.5H84.18L49.68 383.42H2.42999L50.74 190.72L5.62 2.27002H55.52L84.19 142.94H85.25L117.1 2.27002H164.35L118.7 190.72L163.28 383.42Z" stroke="white" stroke-width="2.8347" stroke-miterlimit="10"/>
<path d="M422.32 337.77V383.42H285.36V266.11C285.36 259.74 285.89 254.43 286.95 250.18C288.01 245.93 289.87 241.95 292.52 238.24C295.17 234.52 299.86 229.31 306.59 222.58L358.08 173.21C361.97 169.32 365.06 165.96 367.37 163.12C369.67 160.29 371.26 157.9 372.15 155.95C373.03 154.01 373.56 151.97 373.74 149.85C373.91 147.73 374.01 144.9 374.01 141.36V70.76C374.01 55.9 366.75 48.46 352.25 48.46H349.06C334.54 48.46 327.3 55.89 327.3 70.76V110.04H276.34V67.57C276.34 24.04 296.69 2.28003 337.39 2.28003H363.93C404.62 2.28003 424.98 24.04 424.98 67.57V158.87C424.98 165.95 424 172.14 422.06 177.45C420.11 182.76 415.07 189.31 406.93 197.09L350.66 251.24C343.58 257.97 339.51 262.57 338.45 265.04C337.39 267.52 336.77 270 336.59 272.47C336.41 274.95 336.32 278.31 336.32 282.56V337.77H422.32Z" stroke="white" stroke-width="2.8347" stroke-miterlimit="10"/>
<path d="M537.5 383.42C496.8 383.42 476.45 361.66 476.45 318.13V67.57C476.45 24.04 496.8 2.28003 537.5 2.28003H573.07C613.76 2.28003 634.12 24.04 634.12 67.57V318.13C634.12 361.66 613.77 383.42 573.07 383.42H537.5ZM547.59 48.46C534.14 48.46 527.42 55.89 527.42 70.76V314.95C527.42 329.81 535.03 337.25 550.25 337.25H562.99C576.44 337.25 583.16 329.82 583.16 314.95V70.76C583.16 55.9 575.55 48.46 560.33 48.46H547.59Z" stroke="white" stroke-width="2.8347" stroke-miterlimit="10"/>
<path d="M742.93 383.42C702.23 383.42 681.88 361.66 681.88 318.13V67.57C681.88 24.04 702.23 2.28003 742.93 2.28003H778.5C819.19 2.28003 839.55 24.04 839.55 67.57V318.13C839.55 361.66 819.2 383.42 778.5 383.42H742.93ZM753.02 48.46C739.57 48.46 732.85 55.89 732.85 70.76V314.95C732.85 329.81 740.46 337.25 755.68 337.25H768.42C781.87 337.25 788.59 329.82 788.59 314.95V70.76C788.59 55.9 780.98 48.46 765.76 48.46H753.02Z" stroke="white" stroke-width="2.8347" stroke-miterlimit="10"/>
<path d="M990.83 226.29L1038.07 2.27002H1094.34V383.41H1043.38L1048.69 133.91L1010.47 314.4H971.19L932.97 133.91L938.28 383.41H887.32V2.28001H943.59L990.83 226.29Z" stroke="white" stroke-width="2.8347" stroke-miterlimit="10"/>
<path d="M1286.51 383.42H1237.14L1208.47 238.5H1207.41L1172.91 383.42H1125.66L1173.97 190.72L1128.85 2.27002H1178.75L1207.42 142.94H1208.48L1240.33 2.27002H1287.57L1241.92 190.72L1286.51 383.42Z" stroke="white" stroke-width="2.8347" stroke-miterlimit="10"/>
</svg>
